<?xml version="1.0" encoding="utf-8"?>
<!-- Generator: Adobe Illustrator 16.0.0, SVG Export Plug-In . SVG Version: 6.00 Build 0)  -->
<!DOCTYPE svg PUBLIC "-//W3C//DTD SVG 1.1//EN" "http://www.w3.org/Graphics/SVG/1.1/DTD/svg11.dtd">
<svg version="1.1" id="Layer_1" xmlns="http://www.w3.org/2000/svg" xmlns:xlink="http://www.w3.org/1999/xlink" x="0px" y="0px"
	 width="72.707px" height="70.866px" viewBox="0 0 72.707 70.866" enable-background="new 0 0 72.707 70.866" xml:space="preserve">
<g class="icon">
	<path fill="none" stroke="#000000" stroke-width="2.6851" stroke-miterlimit="10" d="M63.192,50.208V15.296
		c0-1.485-1.191-2.687-2.678-2.687H12.173c-1.463,0-2.68,1.201-2.68,2.687v34.911"/>
	<path fill="none" stroke="#000000" stroke-width="2.6851" stroke-miterlimit="10" d="M67.235,50.208H43.054l-2.678,2.674h-6.715
		l-2.674-2.674H5.472v2.674c0,2.965,2.408,5.375,5.381,5.375h51.014c2.967,0,5.369-2.41,5.369-5.375V50.208z"/>
	
		<path fill="none" stroke="#000000" stroke-width="2.6851" stroke-linecap="round" stroke-linejoin="round" stroke-miterlimit="10" d="
		M37.212,47.208l13.91-13.957l-3.148-3.171c-1.123-1.124-1.482-0.953-2.111-0.35c-0.641,0.669-0.463,2.596-2.297,3.15
		c-1.018,0.299-2.404-0.342-3.418-1.379c-1.02-1.003-1.662-2.396-1.365-3.406c0.545-1.862,2.465-1.656,3.127-2.324
		c0.611-0.612,0.773-0.989-0.342-2.105l-4.33-4.344l-4.152,4.174c-1.109,1.13-1.486,0.952-2.098,0.348
		c-0.666-0.668-0.463-2.595-2.322-3.143c-1.006-0.291-2.406,0.334-3.398,1.38c-1.027,1.009-1.666,2.382-1.357,3.405
		c0.533,1.856,2.463,1.656,3.125,2.332c0.611,0.611,0.768,0.981-0.342,2.098l-3.371,3.363L37.212,47.208z"/>
</g>
</svg>
