<?xml version="1.0" encoding="utf-8"?>
<!-- Generator: Adobe Illustrator 16.0.0, SVG Export Plug-In . SVG Version: 6.00 Build 0)  -->
<!DOCTYPE svg PUBLIC "-//W3C//DTD SVG 1.1//EN" "http://www.w3.org/Graphics/SVG/1.1/DTD/svg11.dtd">
<svg version="1.1" id="Layer_1" xmlns="http://www.w3.org/2000/svg" xmlns:xlink="http://www.w3.org/1999/xlink" x="0px" y="0px"
	 width="141.73px" height="141.73px" viewBox="0 0 141.73 141.73" enable-background="new 0 0 141.73 141.73" xml:space="preserve">
<rect class="background" x="0.298" y="-0.144" fill="#FFFFFF" width="141.732" height="141.732"/>
<g class="icon">
	<path fill="none" stroke="#000000" stroke-width="2.6851" stroke-miterlimit="10" d="M102.035,70.054V47.23
		c0-2.972-2.396-5.375-5.357-5.375H45.662c-2.961,0-5.369,2.403-5.369,5.375v40.272c0,2.986,2.408,5.389,5.369,5.389h32.217"/>
	<polyline fill="none" stroke="#000000" stroke-width="2.6851" stroke-miterlimit="10" points="95.332,68.71 95.332,47.23 
		48.338,47.23 48.338,87.503 76.545,87.503 	"/>
	
		<line fill="none" stroke="#000000" stroke-width="2.6851" stroke-miterlimit="10" x1="44.314" y1="64.672" x2="44.314" y2="70.054"/>
	<path fill="none" stroke="#000000" stroke-width="2.6851" stroke-miterlimit="10" d="M83.256,92.892c0,0,0-2.638,0-4.052
		c-3.313-2.567-4.309-5.916-5.377-8.049c-1.064-2.119-2.678-5.369-2.678-5.369c0-1.301,2.748-2.701,4.137-1.344
		c1.381,1.365,2.633,2.688,2.633,2.688h1.285V60.64c0-1.479,1.264-2.68,2.738-2.68h-0.029c1.494,0,2.646,1.201,2.646,2.68v10.758
		l9.342,1.934c2.262,0.463,4.082,2.09,4.082,4.777v6.713c0,1.521-1.336,2.63-1.336,4.018v4.052H83.256z"/>
	
		<rect x="80.568" y="92.892" fill="none" stroke="#000000" stroke-width="2.6851" stroke-miterlimit="10" width="21.467" height="6.698"/>
</g>
</svg>
