<?xml version="1.0" encoding="utf-8"?>
<!-- Generator: Adobe Illustrator 16.0.0, SVG Export Plug-In . SVG Version: 6.00 Build 0)  -->
<!DOCTYPE svg PUBLIC "-//W3C//DTD SVG 1.1//EN" "http://www.w3.org/Graphics/SVG/1.1/DTD/svg11.dtd">
<svg version="1.1" id="Layer_1" xmlns="http://www.w3.org/2000/svg" xmlns:xlink="http://www.w3.org/1999/xlink" x="0px" y="0px"
	 width="141.73px" height="141.73px" viewBox="0 0 141.73 141.73" enable-background="new 0 0 141.73 141.73" xml:space="preserve">
<rect class="background" x="0.298" y="-0.144" fill="#FFFFFF" width="141.732" height="141.732"/>
<g class="icon">
	<g>
		<path fill="none" stroke="#000000" stroke-width="2.6851" stroke-miterlimit="10" d="M100.71,95.271H41.628
			c-0.729,0-1.348-0.604-1.348-1.345V53.655c0-0.74,0.619-1.345,1.348-1.345h59.082c0.735,0,1.337,0.604,1.337,1.345v40.271
			C102.047,94.667,101.445,95.271,100.71,95.271z"/>
		
			<rect x="45.664" y="57.679" fill="none" stroke="#000000" stroke-width="2.6851" stroke-miterlimit="10" width="51.016" height="26.849"/>
		
			<line fill="none" stroke="#000000" stroke-width="2.6851" stroke-miterlimit="10" x1="63.119" y1="103.319" x2="63.119" y2="97.951"/>
		
			<line fill="none" stroke="#000000" stroke-width="2.6851" stroke-miterlimit="10" x1="79.23" y1="97.951" x2="79.23" y2="103.319"/>
		
			<line fill="none" stroke="#000000" stroke-width="2.6851" stroke-miterlimit="10" x1="85.943" y1="103.319" x2="56.393" y2="103.319"/>
		
			<line fill="none" stroke="#000000" stroke-width="2.6851" stroke-miterlimit="10" x1="45.664" y1="89.903" x2="51.025" y2="89.903"/>
		
			<line fill="none" stroke="#000000" stroke-width="2.6851" stroke-miterlimit="10" x1="53.716" y1="87.215" x2="53.716" y2="92.583"/>
	</g>
	
		<line fill="none" stroke="#000000" stroke-width="2.6851" stroke-linecap="round" stroke-linejoin="round" stroke-miterlimit="10" x1="71.495" y1="52.311" x2="57.31" y2="38.126"/>
	
		<line fill="none" stroke="#000000" stroke-width="2.6851" stroke-linecap="round" stroke-linejoin="round" stroke-miterlimit="10" x1="71.495" y1="52.311" x2="85.669" y2="38.126"/>
</g>
</svg>
