<?xml version="1.0" encoding="utf-8"?>
<!-- Generator: Adobe Illustrator 16.0.0, SVG Export Plug-In . SVG Version: 6.00 Build 0)  -->
<!DOCTYPE svg PUBLIC "-//W3C//DTD SVG 1.1//EN" "http://www.w3.org/Graphics/SVG/1.1/DTD/svg11.dtd">
<svg version="1.1" id="Layer_1" xmlns="http://www.w3.org/2000/svg" xmlns:xlink="http://www.w3.org/1999/xlink" x="0px" y="0px"
	 width="72.707px" height="70.866px" viewBox="0 0 72.707 70.866" enable-background="new 0 0 72.707 70.866" xml:space="preserve">
<g class="icon">
	<g>
		<path d="M21.707,13.545c1.215,0,4.807,0.291,9.304,3.313c0.462,0.385,2.001,1.395,5.343,1.395c3.364,0,4.878-1.01,5.34-1.395
			c4.463-2.995,8.028-3.307,9.325-3.307c0.316,0,0.497,0.019,0.523,0.021c16.451,0.704,17.205,28.52,17.024,37.018
			c-0.047,1.947-0.665,3.711-1.761,5.012c-0.971,1.147-2.058,1.719-3.295,1.719c-0.671,0-1.386-0.168-2.15-0.502
			c-0.946-0.414-1.835-1.053-2.763-1.977l-7.974-7.973c-0.335-0.326-2.262-1.947-7.984-1.947H30.069c-5.7,0-7.638,1.621-7.986,1.963
			l-7.962,7.957c-0.918,0.924-1.832,1.563-2.767,1.977c-0.764,0.334-1.479,0.502-2.149,0.502c-1.238,0-2.326-0.571-3.29-1.719
			c-1.088-1.301-1.717-3.086-1.778-5.012c-0.152-8.498,0.577-36.313,17.15-37.031C21.287,13.559,21.432,13.545,21.707,13.545
			 M21.707,10.545c-0.299,0-0.507,0.011-0.614,0.02C15.235,10.84,7.462,14.162,3.547,28.36c-2.296,8.326-2.496,17.535-2.411,22.284
			c0.084,2.644,0.963,5.073,2.477,6.883c1.94,2.31,4.111,2.794,5.591,2.794c1.082,0,2.21-0.254,3.353-0.754
			c1.324-0.586,2.527-1.438,3.691-2.61l7.911-7.905c0.143-0.108,1.618-1.129,5.909-1.129H42.64c4.279,0,5.762,1.007,5.914,1.119
			l7.923,7.922c1.198,1.193,2.4,2.044,3.682,2.604c1.144,0.5,2.271,0.754,3.353,0.754c1.476,0,3.642-0.482,5.586-2.782
			c1.53-1.816,2.406-4.257,2.469-6.876c0.195-9.19-0.658-39.187-19.82-40.084c-0.168-0.014-0.411-0.027-0.727-0.027
			c-1.597,0-5.864,0.372-10.997,3.815l-0.129,0.086l-0.119,0.1c-0.008,0.006-0.896,0.7-3.42,0.7c-2.504,0-3.418-0.696-3.427-0.703
			l-0.119-0.099l-0.124-0.083C27.549,10.918,23.296,10.545,21.707,10.545L21.707,10.545z"/>
	</g>
	<circle fill="none" stroke="#000000" stroke-width="3.697" stroke-miterlimit="10" cx="48.336" cy="24.153" r="1.001"/>
	<circle fill="none" stroke="#000000" stroke-width="3.697" stroke-miterlimit="10" cx="58.919" cy="30.569" r="1.001"/>
	<circle fill="none" stroke="#000000" stroke-width="3.697" stroke-miterlimit="10" cx="48.419" cy="37.236" r="1.001"/>
	<g>
		<g>
			<path d="M22.625,22.479c0.679,0,1.233,0.562,1.233,1.237v4.244c0,0.746,0.611,1.344,1.347,1.344h4.234
				c0.68,0,1.237,0.555,1.237,1.23c0,0.689-0.558,1.23-1.237,1.23h-4.234c-0.735,0-1.347,0.611-1.347,1.35v4.246
				c0,0.676-0.555,1.215-1.233,1.215c-0.694,0-1.242-0.539-1.242-1.215v-4.246c0-0.738-0.59-1.35-1.328-1.35h-4.252
				c-0.677,0-1.223-0.541-1.223-1.23c0-0.676,0.546-1.23,1.223-1.23h4.252c0.738,0,1.328-0.598,1.328-1.344v-4.244
				C21.382,23.041,21.93,22.479,22.625,22.479 M22.625,19.979c-2.063,0-3.742,1.677-3.742,3.737v3.088h-3.08
				c-2.053,0-3.723,1.673-3.723,3.73s1.67,3.73,3.723,3.73h3.08v3.096c0,2.049,1.679,3.715,3.742,3.715
				c2.059,0,3.733-1.666,3.733-3.715v-3.096h3.081c2.061,0,3.737-1.673,3.737-3.73s-1.677-3.73-3.737-3.73h-3.081v-3.088
				C26.358,21.656,24.683,19.979,22.625,19.979L22.625,19.979z"/>
		</g>
	</g>
</g>
</svg>
